<mxfile host="app.diagrams.net" agent="Mozilla/5.0 (Windows NT 10.0; Win64; x64) AppleWebKit/537.36 (KHTML, like Gecko) Chrome/131.0.0.0 Safari/537.36" version="24.8.6">
  <diagram name="Page-1" id="JY5ZHwtryIxUGJIdgvJa">
    <mxGraphModel dx="2266" dy="979" grid="1" gridSize="10" guides="1" tooltips="1" connect="1" arrows="1" fold="1" page="1" pageScale="1" pageWidth="850" pageHeight="1100" background="none" math="0" shadow="1">
      <root>
        <mxCell id="0" />
        <mxCell id="1" parent="0" />
        <mxCell id="pHCHq_Ou_SgAkY8i8tZ--1" value="Hosting" style="shape=table;startSize=30;container=1;collapsible=1;childLayout=tableLayout;fixedRows=1;rowLines=0;fontStyle=1;align=center;resizeLast=1;html=1;fillColor=#d5e8d4;strokeColor=#82b366;rounded=1;sketch=1;curveFitting=1;jiggle=2;shadow=1;fontFamily=Courier New;fontSize=13;" vertex="1" parent="1">
          <mxGeometry x="460" y="220" width="180" height="150" as="geometry">
            <mxRectangle x="420" y="190" width="80" height="30" as="alternateBounds" />
          </mxGeometry>
        </mxCell>
        <mxCell id="pHCHq_Ou_SgAkY8i8tZ--2" value="" style="shape=tableRow;horizontal=0;startSize=0;swimlaneHead=0;swimlaneBody=0;fillColor=none;collapsible=0;dropTarget=0;points=[[0,0.5],[1,0.5]];portConstraint=eastwest;top=0;left=0;right=0;bottom=1;fontFamily=Courier New;fontSize=13;rounded=1;" vertex="1" parent="pHCHq_Ou_SgAkY8i8tZ--1">
          <mxGeometry y="30" width="180" height="30" as="geometry" />
        </mxCell>
        <mxCell id="pHCHq_Ou_SgAkY8i8tZ--3" value="PK" style="shape=partialRectangle;connectable=0;fillColor=none;top=0;left=0;bottom=0;right=0;fontStyle=1;overflow=hidden;whiteSpace=wrap;html=1;fontFamily=Courier New;fontSize=13;rounded=1;" vertex="1" parent="pHCHq_Ou_SgAkY8i8tZ--2">
          <mxGeometry width="30" height="30" as="geometry">
            <mxRectangle width="30" height="30" as="alternateBounds" />
          </mxGeometry>
        </mxCell>
        <mxCell id="pHCHq_Ou_SgAkY8i8tZ--4" value="record_id" style="shape=partialRectangle;connectable=0;fillColor=#d5e8d4;top=0;left=0;bottom=0;right=0;align=left;spacingLeft=6;fontStyle=5;overflow=hidden;whiteSpace=wrap;html=1;strokeColor=#82b366;sketch=1;curveFitting=1;jiggle=2;shadow=1;fontFamily=Courier New;fontSize=13;rounded=1;" vertex="1" parent="pHCHq_Ou_SgAkY8i8tZ--2">
          <mxGeometry x="30" width="150" height="30" as="geometry">
            <mxRectangle width="150" height="30" as="alternateBounds" />
          </mxGeometry>
        </mxCell>
        <mxCell id="pHCHq_Ou_SgAkY8i8tZ--5" value="" style="shape=tableRow;horizontal=0;startSize=0;swimlaneHead=0;swimlaneBody=0;fillColor=none;collapsible=0;dropTarget=0;points=[[0,0.5],[1,0.5]];portConstraint=eastwest;top=0;left=0;right=0;bottom=0;fontFamily=Courier New;fontSize=13;rounded=1;" vertex="1" parent="pHCHq_Ou_SgAkY8i8tZ--1">
          <mxGeometry y="60" width="180" height="30" as="geometry" />
        </mxCell>
        <mxCell id="pHCHq_Ou_SgAkY8i8tZ--6" value="" style="shape=partialRectangle;connectable=0;fillColor=none;top=0;left=0;bottom=0;right=0;editable=1;overflow=hidden;whiteSpace=wrap;html=1;fontFamily=Courier New;fontSize=13;rounded=1;" vertex="1" parent="pHCHq_Ou_SgAkY8i8tZ--5">
          <mxGeometry width="30" height="30" as="geometry">
            <mxRectangle width="30" height="30" as="alternateBounds" />
          </mxGeometry>
        </mxCell>
        <mxCell id="pHCHq_Ou_SgAkY8i8tZ--7" value="titles" style="shape=partialRectangle;connectable=0;fillColor=none;top=0;left=0;bottom=0;right=0;align=left;spacingLeft=6;overflow=hidden;whiteSpace=wrap;html=1;fontFamily=Courier New;fontSize=13;rounded=1;" vertex="1" parent="pHCHq_Ou_SgAkY8i8tZ--5">
          <mxGeometry x="30" width="150" height="30" as="geometry">
            <mxRectangle width="150" height="30" as="alternateBounds" />
          </mxGeometry>
        </mxCell>
        <mxCell id="pHCHq_Ou_SgAkY8i8tZ--8" value="" style="shape=tableRow;horizontal=0;startSize=0;swimlaneHead=0;swimlaneBody=0;fillColor=none;collapsible=0;dropTarget=0;points=[[0,0.5],[1,0.5]];portConstraint=eastwest;top=0;left=0;right=0;bottom=0;fontFamily=Courier New;fontSize=13;rounded=1;" vertex="1" parent="pHCHq_Ou_SgAkY8i8tZ--1">
          <mxGeometry y="90" width="180" height="30" as="geometry" />
        </mxCell>
        <mxCell id="pHCHq_Ou_SgAkY8i8tZ--9" value="" style="shape=partialRectangle;connectable=0;fillColor=none;top=0;left=0;bottom=0;right=0;editable=1;overflow=hidden;whiteSpace=wrap;html=1;fontFamily=Courier New;fontSize=13;rounded=1;" vertex="1" parent="pHCHq_Ou_SgAkY8i8tZ--8">
          <mxGeometry width="30" height="30" as="geometry">
            <mxRectangle width="30" height="30" as="alternateBounds" />
          </mxGeometry>
        </mxCell>
        <mxCell id="pHCHq_Ou_SgAkY8i8tZ--10" value="property_types" style="shape=partialRectangle;connectable=0;fillColor=none;top=0;left=0;bottom=0;right=0;align=left;spacingLeft=6;overflow=hidden;whiteSpace=wrap;html=1;fontFamily=Courier New;fontSize=13;rounded=1;" vertex="1" parent="pHCHq_Ou_SgAkY8i8tZ--8">
          <mxGeometry x="30" width="150" height="30" as="geometry">
            <mxRectangle width="150" height="30" as="alternateBounds" />
          </mxGeometry>
        </mxCell>
        <mxCell id="pHCHq_Ou_SgAkY8i8tZ--11" value="" style="shape=tableRow;horizontal=0;startSize=0;swimlaneHead=0;swimlaneBody=0;fillColor=none;collapsible=0;dropTarget=0;points=[[0,0.5],[1,0.5]];portConstraint=eastwest;top=0;left=0;right=0;bottom=0;fontFamily=Courier New;fontSize=13;rounded=1;" vertex="1" parent="pHCHq_Ou_SgAkY8i8tZ--1">
          <mxGeometry y="120" width="180" height="30" as="geometry" />
        </mxCell>
        <mxCell id="pHCHq_Ou_SgAkY8i8tZ--12" value="" style="shape=partialRectangle;connectable=0;fillColor=none;top=0;left=0;bottom=0;right=0;editable=1;overflow=hidden;whiteSpace=wrap;html=1;fontFamily=Courier New;fontSize=13;rounded=1;" vertex="1" parent="pHCHq_Ou_SgAkY8i8tZ--11">
          <mxGeometry width="30" height="30" as="geometry">
            <mxRectangle width="30" height="30" as="alternateBounds" />
          </mxGeometry>
        </mxCell>
        <mxCell id="pHCHq_Ou_SgAkY8i8tZ--13" value="host_name" style="shape=partialRectangle;connectable=0;fillColor=none;top=0;left=0;bottom=0;right=0;align=left;spacingLeft=6;overflow=hidden;whiteSpace=wrap;html=1;fontFamily=Courier New;fontSize=13;rounded=1;" vertex="1" parent="pHCHq_Ou_SgAkY8i8tZ--11">
          <mxGeometry x="30" width="150" height="30" as="geometry">
            <mxRectangle width="150" height="30" as="alternateBounds" />
          </mxGeometry>
        </mxCell>
        <mxCell id="pHCHq_Ou_SgAkY8i8tZ--14" value="Description_" style="shape=table;startSize=30;container=1;collapsible=1;childLayout=tableLayout;fixedRows=1;rowLines=0;fontStyle=1;align=center;resizeLast=1;html=1;strokeWidth=1;perimeterSpacing=4;swimlaneFillColor=none;fillColor=#d0cee2;strokeColor=#56517e;sketch=1;curveFitting=1;jiggle=2;shadow=1;rounded=1;fontSize=13;" vertex="1" parent="1">
          <mxGeometry x="630" y="460" width="180" height="320" as="geometry">
            <mxRectangle x="605" y="100" width="110" height="30" as="alternateBounds" />
          </mxGeometry>
        </mxCell>
        <mxCell id="pHCHq_Ou_SgAkY8i8tZ--15" value="" style="shape=tableRow;horizontal=0;startSize=0;swimlaneHead=0;swimlaneBody=0;fillColor=none;collapsible=0;dropTarget=0;points=[[0,0.5],[1,0.5]];portConstraint=eastwest;top=0;left=0;right=0;bottom=1;fontSize=13;rounded=1;" vertex="1" parent="pHCHq_Ou_SgAkY8i8tZ--14">
          <mxGeometry y="30" width="180" height="30" as="geometry" />
        </mxCell>
        <mxCell id="pHCHq_Ou_SgAkY8i8tZ--16" value="FK" style="shape=partialRectangle;connectable=0;fillColor=none;top=0;left=0;bottom=0;right=0;fontStyle=1;overflow=hidden;whiteSpace=wrap;html=1;fontFamily=Courier New;fontSize=13;rounded=1;" vertex="1" parent="pHCHq_Ou_SgAkY8i8tZ--15">
          <mxGeometry width="30" height="30" as="geometry">
            <mxRectangle width="30" height="30" as="alternateBounds" />
          </mxGeometry>
        </mxCell>
        <mxCell id="pHCHq_Ou_SgAkY8i8tZ--17" value="id" style="shape=partialRectangle;connectable=0;fillColor=#d5e8d4;top=0;left=0;bottom=0;right=0;align=left;spacingLeft=6;fontStyle=5;overflow=hidden;whiteSpace=wrap;html=1;strokeColor=#82b366;sketch=1;curveFitting=1;jiggle=2;shadow=1;fontSize=13;rounded=1;" vertex="1" parent="pHCHq_Ou_SgAkY8i8tZ--15">
          <mxGeometry x="30" width="150" height="30" as="geometry">
            <mxRectangle width="150" height="30" as="alternateBounds" />
          </mxGeometry>
        </mxCell>
        <mxCell id="pHCHq_Ou_SgAkY8i8tZ--18" value="" style="shape=tableRow;horizontal=0;startSize=0;swimlaneHead=0;swimlaneBody=0;fillColor=none;collapsible=0;dropTarget=0;points=[[0,0.5],[1,0.5]];portConstraint=eastwest;top=0;left=0;right=0;bottom=0;fontSize=13;rounded=1;" vertex="1" parent="pHCHq_Ou_SgAkY8i8tZ--14">
          <mxGeometry y="60" width="180" height="20" as="geometry" />
        </mxCell>
        <mxCell id="pHCHq_Ou_SgAkY8i8tZ--19" value="" style="shape=partialRectangle;connectable=0;fillColor=none;top=0;left=0;bottom=0;right=0;editable=1;overflow=hidden;whiteSpace=wrap;html=1;fontFamily=Courier New;fontSize=13;rounded=1;" vertex="1" parent="pHCHq_Ou_SgAkY8i8tZ--18">
          <mxGeometry width="30" height="20" as="geometry">
            <mxRectangle width="30" height="20" as="alternateBounds" />
          </mxGeometry>
        </mxCell>
        <mxCell id="pHCHq_Ou_SgAkY8i8tZ--20" value="price_per_nigth" style="shape=partialRectangle;connectable=0;fillColor=none;top=0;left=0;bottom=0;right=0;align=left;spacingLeft=6;overflow=hidden;whiteSpace=wrap;html=1;fontSize=13;rounded=1;" vertex="1" parent="pHCHq_Ou_SgAkY8i8tZ--18">
          <mxGeometry x="30" width="150" height="20" as="geometry">
            <mxRectangle width="150" height="20" as="alternateBounds" />
          </mxGeometry>
        </mxCell>
        <mxCell id="pHCHq_Ou_SgAkY8i8tZ--21" value="" style="shape=tableRow;horizontal=0;startSize=0;swimlaneHead=0;swimlaneBody=0;fillColor=none;collapsible=0;dropTarget=0;points=[[0,0.5],[1,0.5]];portConstraint=eastwest;top=0;left=0;right=0;bottom=0;fontSize=13;rounded=1;" vertex="1" parent="pHCHq_Ou_SgAkY8i8tZ--14">
          <mxGeometry y="80" width="180" height="30" as="geometry" />
        </mxCell>
        <mxCell id="pHCHq_Ou_SgAkY8i8tZ--22" value="" style="shape=partialRectangle;connectable=0;fillColor=none;top=0;left=0;bottom=0;right=0;editable=1;overflow=hidden;whiteSpace=wrap;html=1;fontFamily=Courier New;fontSize=13;rounded=1;" vertex="1" parent="pHCHq_Ou_SgAkY8i8tZ--21">
          <mxGeometry width="30" height="30" as="geometry">
            <mxRectangle width="30" height="30" as="alternateBounds" />
          </mxGeometry>
        </mxCell>
        <mxCell id="pHCHq_Ou_SgAkY8i8tZ--23" value="check_in_hour" style="shape=partialRectangle;connectable=0;fillColor=none;top=0;left=0;bottom=0;right=0;align=left;spacingLeft=6;overflow=hidden;whiteSpace=wrap;html=1;fontSize=13;rounded=1;" vertex="1" parent="pHCHq_Ou_SgAkY8i8tZ--21">
          <mxGeometry x="30" width="150" height="30" as="geometry">
            <mxRectangle width="150" height="30" as="alternateBounds" />
          </mxGeometry>
        </mxCell>
        <mxCell id="pHCHq_Ou_SgAkY8i8tZ--24" value="" style="shape=tableRow;horizontal=0;startSize=0;swimlaneHead=0;swimlaneBody=0;fillColor=none;collapsible=0;dropTarget=0;points=[[0,0.5],[1,0.5]];portConstraint=eastwest;top=0;left=0;right=0;bottom=0;fontSize=13;rounded=1;" vertex="1" parent="pHCHq_Ou_SgAkY8i8tZ--14">
          <mxGeometry y="110" width="180" height="30" as="geometry" />
        </mxCell>
        <mxCell id="pHCHq_Ou_SgAkY8i8tZ--25" value="" style="shape=partialRectangle;connectable=0;fillColor=none;top=0;left=0;bottom=0;right=0;editable=1;overflow=hidden;whiteSpace=wrap;html=1;fontFamily=Courier New;fontSize=13;rounded=1;" vertex="1" parent="pHCHq_Ou_SgAkY8i8tZ--24">
          <mxGeometry width="30" height="30" as="geometry">
            <mxRectangle width="30" height="30" as="alternateBounds" />
          </mxGeometry>
        </mxCell>
        <mxCell id="pHCHq_Ou_SgAkY8i8tZ--26" value="check_out_hour" style="shape=partialRectangle;connectable=0;fillColor=none;top=0;left=0;bottom=0;right=0;align=left;spacingLeft=6;overflow=hidden;whiteSpace=wrap;html=1;fontSize=13;rounded=1;" vertex="1" parent="pHCHq_Ou_SgAkY8i8tZ--24">
          <mxGeometry x="30" width="150" height="30" as="geometry">
            <mxRectangle width="150" height="30" as="alternateBounds" />
          </mxGeometry>
        </mxCell>
        <mxCell id="pHCHq_Ou_SgAkY8i8tZ--92" value="" style="shape=tableRow;horizontal=0;startSize=0;swimlaneHead=0;swimlaneBody=0;fillColor=none;collapsible=0;dropTarget=0;points=[[0,0.5],[1,0.5]];portConstraint=eastwest;top=0;left=0;right=0;bottom=0;fontSize=13;rounded=1;" vertex="1" parent="pHCHq_Ou_SgAkY8i8tZ--14">
          <mxGeometry y="140" width="180" height="30" as="geometry" />
        </mxCell>
        <mxCell id="pHCHq_Ou_SgAkY8i8tZ--93" value="" style="shape=partialRectangle;connectable=0;fillColor=none;top=0;left=0;bottom=0;right=0;editable=1;overflow=hidden;whiteSpace=wrap;html=1;fontFamily=Courier New;fontSize=13;rounded=1;" vertex="1" parent="pHCHq_Ou_SgAkY8i8tZ--92">
          <mxGeometry width="30" height="30" as="geometry">
            <mxRectangle width="30" height="30" as="alternateBounds" />
          </mxGeometry>
        </mxCell>
        <mxCell id="pHCHq_Ou_SgAkY8i8tZ--94" value="total_hours_checkin" style="shape=partialRectangle;connectable=0;fillColor=none;top=0;left=0;bottom=0;right=0;align=left;spacingLeft=6;overflow=hidden;whiteSpace=wrap;html=1;fontSize=13;rounded=1;" vertex="1" parent="pHCHq_Ou_SgAkY8i8tZ--92">
          <mxGeometry x="30" width="150" height="30" as="geometry">
            <mxRectangle width="150" height="30" as="alternateBounds" />
          </mxGeometry>
        </mxCell>
        <mxCell id="pHCHq_Ou_SgAkY8i8tZ--111" value="" style="shape=tableRow;horizontal=0;startSize=0;swimlaneHead=0;swimlaneBody=0;fillColor=none;collapsible=0;dropTarget=0;points=[[0,0.5],[1,0.5]];portConstraint=eastwest;top=0;left=0;right=0;bottom=0;fontSize=13;rounded=1;" vertex="1" parent="pHCHq_Ou_SgAkY8i8tZ--14">
          <mxGeometry y="170" width="180" height="30" as="geometry" />
        </mxCell>
        <mxCell id="pHCHq_Ou_SgAkY8i8tZ--112" value="" style="shape=partialRectangle;connectable=0;fillColor=none;top=0;left=0;bottom=0;right=0;editable=1;overflow=hidden;whiteSpace=wrap;html=1;fontFamily=Courier New;fontSize=13;rounded=1;" vertex="1" parent="pHCHq_Ou_SgAkY8i8tZ--111">
          <mxGeometry width="30" height="30" as="geometry">
            <mxRectangle width="30" height="30" as="alternateBounds" />
          </mxGeometry>
        </mxCell>
        <mxCell id="pHCHq_Ou_SgAkY8i8tZ--113" value="cleaning_fee" style="shape=partialRectangle;connectable=0;fillColor=none;top=0;left=0;bottom=0;right=0;align=left;spacingLeft=6;overflow=hidden;whiteSpace=wrap;html=1;fontSize=13;rounded=1;" vertex="1" parent="pHCHq_Ou_SgAkY8i8tZ--111">
          <mxGeometry x="30" width="150" height="30" as="geometry">
            <mxRectangle width="150" height="30" as="alternateBounds" />
          </mxGeometry>
        </mxCell>
        <mxCell id="pHCHq_Ou_SgAkY8i8tZ--114" value="" style="shape=tableRow;horizontal=0;startSize=0;swimlaneHead=0;swimlaneBody=0;fillColor=none;collapsible=0;dropTarget=0;points=[[0,0.5],[1,0.5]];portConstraint=eastwest;top=0;left=0;right=0;bottom=0;fontSize=13;rounded=1;" vertex="1" parent="pHCHq_Ou_SgAkY8i8tZ--14">
          <mxGeometry y="200" width="180" height="30" as="geometry" />
        </mxCell>
        <mxCell id="pHCHq_Ou_SgAkY8i8tZ--115" value="" style="shape=partialRectangle;connectable=0;fillColor=none;top=0;left=0;bottom=0;right=0;editable=1;overflow=hidden;whiteSpace=wrap;html=1;fontFamily=Courier New;fontSize=13;rounded=1;" vertex="1" parent="pHCHq_Ou_SgAkY8i8tZ--114">
          <mxGeometry width="30" height="30" as="geometry">
            <mxRectangle width="30" height="30" as="alternateBounds" />
          </mxGeometry>
        </mxCell>
        <mxCell id="pHCHq_Ou_SgAkY8i8tZ--116" value="maximum_guests" style="shape=partialRectangle;connectable=0;fillColor=none;top=0;left=0;bottom=0;right=0;align=left;spacingLeft=6;overflow=hidden;whiteSpace=wrap;html=1;fontSize=13;rounded=1;" vertex="1" parent="pHCHq_Ou_SgAkY8i8tZ--114">
          <mxGeometry x="30" width="150" height="30" as="geometry">
            <mxRectangle width="150" height="30" as="alternateBounds" />
          </mxGeometry>
        </mxCell>
        <mxCell id="pHCHq_Ou_SgAkY8i8tZ--117" value="" style="shape=tableRow;horizontal=0;startSize=0;swimlaneHead=0;swimlaneBody=0;fillColor=none;collapsible=0;dropTarget=0;points=[[0,0.5],[1,0.5]];portConstraint=eastwest;top=0;left=0;right=0;bottom=0;fontSize=13;rounded=1;" vertex="1" parent="pHCHq_Ou_SgAkY8i8tZ--14">
          <mxGeometry y="230" width="180" height="30" as="geometry" />
        </mxCell>
        <mxCell id="pHCHq_Ou_SgAkY8i8tZ--118" value="" style="shape=partialRectangle;connectable=0;fillColor=none;top=0;left=0;bottom=0;right=0;editable=1;overflow=hidden;whiteSpace=wrap;html=1;fontFamily=Courier New;fontSize=13;rounded=1;" vertex="1" parent="pHCHq_Ou_SgAkY8i8tZ--117">
          <mxGeometry width="30" height="30" as="geometry">
            <mxRectangle width="30" height="30" as="alternateBounds" />
          </mxGeometry>
        </mxCell>
        <mxCell id="pHCHq_Ou_SgAkY8i8tZ--119" value="camas" style="shape=partialRectangle;connectable=0;fillColor=none;top=0;left=0;bottom=0;right=0;align=left;spacingLeft=6;overflow=hidden;whiteSpace=wrap;html=1;fontSize=13;rounded=1;" vertex="1" parent="pHCHq_Ou_SgAkY8i8tZ--117">
          <mxGeometry x="30" width="150" height="30" as="geometry">
            <mxRectangle width="150" height="30" as="alternateBounds" />
          </mxGeometry>
        </mxCell>
        <mxCell id="pHCHq_Ou_SgAkY8i8tZ--120" value="" style="shape=tableRow;horizontal=0;startSize=0;swimlaneHead=0;swimlaneBody=0;fillColor=none;collapsible=0;dropTarget=0;points=[[0,0.5],[1,0.5]];portConstraint=eastwest;top=0;left=0;right=0;bottom=0;fontSize=13;rounded=1;" vertex="1" parent="pHCHq_Ou_SgAkY8i8tZ--14">
          <mxGeometry y="260" width="180" height="30" as="geometry" />
        </mxCell>
        <mxCell id="pHCHq_Ou_SgAkY8i8tZ--121" value="" style="shape=partialRectangle;connectable=0;fillColor=none;top=0;left=0;bottom=0;right=0;editable=1;overflow=hidden;whiteSpace=wrap;html=1;fontFamily=Courier New;fontSize=13;rounded=1;" vertex="1" parent="pHCHq_Ou_SgAkY8i8tZ--120">
          <mxGeometry width="30" height="30" as="geometry">
            <mxRectangle width="30" height="30" as="alternateBounds" />
          </mxGeometry>
        </mxCell>
        <mxCell id="pHCHq_Ou_SgAkY8i8tZ--122" value="baños" style="shape=partialRectangle;connectable=0;fillColor=none;top=0;left=0;bottom=0;right=0;align=left;spacingLeft=6;overflow=hidden;whiteSpace=wrap;html=1;fontSize=13;rounded=1;" vertex="1" parent="pHCHq_Ou_SgAkY8i8tZ--120">
          <mxGeometry x="30" width="150" height="30" as="geometry">
            <mxRectangle width="150" height="30" as="alternateBounds" />
          </mxGeometry>
        </mxCell>
        <mxCell id="pHCHq_Ou_SgAkY8i8tZ--123" value="" style="shape=tableRow;horizontal=0;startSize=0;swimlaneHead=0;swimlaneBody=0;fillColor=none;collapsible=0;dropTarget=0;points=[[0,0.5],[1,0.5]];portConstraint=eastwest;top=0;left=0;right=0;bottom=0;fontSize=13;rounded=1;" vertex="1" parent="pHCHq_Ou_SgAkY8i8tZ--14">
          <mxGeometry y="290" width="180" height="30" as="geometry" />
        </mxCell>
        <mxCell id="pHCHq_Ou_SgAkY8i8tZ--124" value="" style="shape=partialRectangle;connectable=0;fillColor=none;top=0;left=0;bottom=0;right=0;editable=1;overflow=hidden;whiteSpace=wrap;html=1;fontFamily=Courier New;fontSize=13;rounded=1;" vertex="1" parent="pHCHq_Ou_SgAkY8i8tZ--123">
          <mxGeometry width="30" height="30" as="geometry">
            <mxRectangle width="30" height="30" as="alternateBounds" />
          </mxGeometry>
        </mxCell>
        <mxCell id="pHCHq_Ou_SgAkY8i8tZ--125" value="dormitorios" style="shape=partialRectangle;connectable=0;fillColor=none;top=0;left=0;bottom=0;right=0;align=left;spacingLeft=6;overflow=hidden;whiteSpace=wrap;html=1;fontSize=13;rounded=1;" vertex="1" parent="pHCHq_Ou_SgAkY8i8tZ--123">
          <mxGeometry x="30" width="150" height="30" as="geometry">
            <mxRectangle width="150" height="30" as="alternateBounds" />
          </mxGeometry>
        </mxCell>
        <mxCell id="pHCHq_Ou_SgAkY8i8tZ--154" style="edgeStyle=orthogonalEdgeStyle;rounded=1;orthogonalLoop=1;jettySize=auto;html=1;dashed=1;strokeWidth=5;strokeColor=#b0e3e6;sketch=1;curveFitting=1;jiggle=2;shadow=1;fontFamily=Courier New;fontSize=13;" edge="1" parent="1" source="pHCHq_Ou_SgAkY8i8tZ--27" target="pHCHq_Ou_SgAkY8i8tZ--15">
          <mxGeometry relative="1" as="geometry" />
        </mxCell>
        <mxCell id="pHCHq_Ou_SgAkY8i8tZ--27" value="Ratings" style="shape=table;startSize=30;container=1;collapsible=1;childLayout=tableLayout;fixedRows=1;rowLines=0;fontStyle=1;align=center;resizeLast=1;html=1;fillColor=#b0e3e6;strokeColor=#0e8088;rounded=1;sketch=1;curveFitting=1;jiggle=2;shadow=1;fontFamily=Courier New;fontSize=13;" vertex="1" parent="1">
          <mxGeometry x="110" y="220" width="180" height="160" as="geometry">
            <mxRectangle x="30" y="260" width="80" height="30" as="alternateBounds" />
          </mxGeometry>
        </mxCell>
        <mxCell id="pHCHq_Ou_SgAkY8i8tZ--28" value="" style="shape=tableRow;horizontal=0;startSize=0;swimlaneHead=0;swimlaneBody=0;fillColor=none;collapsible=0;dropTarget=0;points=[[0,0.5],[1,0.5]];portConstraint=eastwest;top=0;left=0;right=0;bottom=1;fontFamily=Courier New;fontSize=13;rounded=1;" vertex="1" parent="pHCHq_Ou_SgAkY8i8tZ--27">
          <mxGeometry y="30" width="180" height="30" as="geometry" />
        </mxCell>
        <mxCell id="pHCHq_Ou_SgAkY8i8tZ--29" value="FK" style="shape=partialRectangle;connectable=0;fillColor=none;top=0;left=0;bottom=0;right=0;fontStyle=1;overflow=hidden;whiteSpace=wrap;html=1;fontFamily=Courier New;fontSize=13;rounded=1;" vertex="1" parent="pHCHq_Ou_SgAkY8i8tZ--28">
          <mxGeometry width="30" height="30" as="geometry">
            <mxRectangle width="30" height="30" as="alternateBounds" />
          </mxGeometry>
        </mxCell>
        <mxCell id="pHCHq_Ou_SgAkY8i8tZ--30" value="record_id" style="shape=partialRectangle;connectable=0;fillColor=#d5e8d4;top=0;left=0;bottom=0;right=0;align=left;spacingLeft=6;fontStyle=5;overflow=hidden;whiteSpace=wrap;html=1;strokeColor=#82b366;sketch=1;curveFitting=1;jiggle=2;shadow=1;fontFamily=Courier New;fontSize=13;rounded=1;" vertex="1" parent="pHCHq_Ou_SgAkY8i8tZ--28">
          <mxGeometry x="30" width="150" height="30" as="geometry">
            <mxRectangle width="150" height="30" as="alternateBounds" />
          </mxGeometry>
        </mxCell>
        <mxCell id="pHCHq_Ou_SgAkY8i8tZ--31" value="" style="shape=tableRow;horizontal=0;startSize=0;swimlaneHead=0;swimlaneBody=0;fillColor=none;collapsible=0;dropTarget=0;points=[[0,0.5],[1,0.5]];portConstraint=eastwest;top=0;left=0;right=0;bottom=0;fontFamily=Courier New;fontSize=13;rounded=1;" vertex="1" parent="pHCHq_Ou_SgAkY8i8tZ--27">
          <mxGeometry y="60" width="180" height="30" as="geometry" />
        </mxCell>
        <mxCell id="pHCHq_Ou_SgAkY8i8tZ--32" value="" style="shape=partialRectangle;connectable=0;fillColor=none;top=0;left=0;bottom=0;right=0;editable=1;overflow=hidden;whiteSpace=wrap;html=1;fontFamily=Courier New;fontSize=13;rounded=1;" vertex="1" parent="pHCHq_Ou_SgAkY8i8tZ--31">
          <mxGeometry width="30" height="30" as="geometry">
            <mxRectangle width="30" height="30" as="alternateBounds" />
          </mxGeometry>
        </mxCell>
        <mxCell id="pHCHq_Ou_SgAkY8i8tZ--33" value="ratings" style="shape=partialRectangle;connectable=0;fillColor=none;top=0;left=0;bottom=0;right=0;align=left;spacingLeft=6;overflow=hidden;whiteSpace=wrap;html=1;fontFamily=Courier New;fontSize=13;rounded=1;" vertex="1" parent="pHCHq_Ou_SgAkY8i8tZ--31">
          <mxGeometry x="30" width="150" height="30" as="geometry">
            <mxRectangle width="150" height="30" as="alternateBounds" />
          </mxGeometry>
        </mxCell>
        <mxCell id="pHCHq_Ou_SgAkY8i8tZ--34" value="" style="shape=tableRow;horizontal=0;startSize=0;swimlaneHead=0;swimlaneBody=0;fillColor=none;collapsible=0;dropTarget=0;points=[[0,0.5],[1,0.5]];portConstraint=eastwest;top=0;left=0;right=0;bottom=0;fontFamily=Courier New;fontSize=13;rounded=1;" vertex="1" parent="pHCHq_Ou_SgAkY8i8tZ--27">
          <mxGeometry y="90" width="180" height="40" as="geometry" />
        </mxCell>
        <mxCell id="pHCHq_Ou_SgAkY8i8tZ--35" value="" style="shape=partialRectangle;connectable=0;fillColor=none;top=0;left=0;bottom=0;right=0;editable=1;overflow=hidden;whiteSpace=wrap;html=1;fontFamily=Courier New;fontSize=13;rounded=1;" vertex="1" parent="pHCHq_Ou_SgAkY8i8tZ--34">
          <mxGeometry width="30" height="40" as="geometry">
            <mxRectangle width="30" height="40" as="alternateBounds" />
          </mxGeometry>
        </mxCell>
        <mxCell id="pHCHq_Ou_SgAkY8i8tZ--36" value="num_reviews" style="shape=partialRectangle;connectable=0;fillColor=none;top=0;left=0;bottom=0;right=0;align=left;spacingLeft=6;overflow=hidden;whiteSpace=wrap;html=1;fontFamily=Courier New;fontSize=13;rounded=1;" vertex="1" parent="pHCHq_Ou_SgAkY8i8tZ--34">
          <mxGeometry x="30" width="150" height="40" as="geometry">
            <mxRectangle width="150" height="40" as="alternateBounds" />
          </mxGeometry>
        </mxCell>
        <mxCell id="pHCHq_Ou_SgAkY8i8tZ--37" value="" style="shape=tableRow;horizontal=0;startSize=0;swimlaneHead=0;swimlaneBody=0;fillColor=none;collapsible=0;dropTarget=0;points=[[0,0.5],[1,0.5]];portConstraint=eastwest;top=0;left=0;right=0;bottom=0;fontFamily=Courier New;fontSize=13;rounded=1;" vertex="1" parent="pHCHq_Ou_SgAkY8i8tZ--27">
          <mxGeometry y="130" width="180" height="30" as="geometry" />
        </mxCell>
        <mxCell id="pHCHq_Ou_SgAkY8i8tZ--38" value="" style="shape=partialRectangle;connectable=0;fillColor=none;top=0;left=0;bottom=0;right=0;editable=1;overflow=hidden;whiteSpace=wrap;html=1;fontFamily=Courier New;fontSize=13;rounded=1;" vertex="1" parent="pHCHq_Ou_SgAkY8i8tZ--37">
          <mxGeometry width="30" height="30" as="geometry">
            <mxRectangle width="30" height="30" as="alternateBounds" />
          </mxGeometry>
        </mxCell>
        <mxCell id="pHCHq_Ou_SgAkY8i8tZ--39" value="coments" style="shape=partialRectangle;connectable=0;fillColor=none;top=0;left=0;bottom=0;right=0;align=left;spacingLeft=6;overflow=hidden;whiteSpace=wrap;html=1;fontFamily=Courier New;fontSize=13;rounded=1;" vertex="1" parent="pHCHq_Ou_SgAkY8i8tZ--37">
          <mxGeometry x="30" width="150" height="30" as="geometry">
            <mxRectangle width="150" height="30" as="alternateBounds" />
          </mxGeometry>
        </mxCell>
        <mxCell id="pHCHq_Ou_SgAkY8i8tZ--40" value="Services_Hosting" style="shape=table;startSize=30;container=1;collapsible=1;childLayout=tableLayout;fixedRows=1;rowLines=0;fontStyle=1;align=center;resizeLast=1;html=1;gradientColor=none;fillColor=#f7ffcf;strokeColor=#f7ffcf;rounded=1;sketch=1;curveFitting=1;jiggle=2;shadow=1;swimlaneLine=1;fontFamily=Courier New;fontSize=13;" vertex="1" parent="1">
          <mxGeometry x="70" y="530" width="180" height="90" as="geometry" />
        </mxCell>
        <mxCell id="pHCHq_Ou_SgAkY8i8tZ--41" value="" style="shape=tableRow;horizontal=0;startSize=0;swimlaneHead=0;swimlaneBody=0;fillColor=none;collapsible=0;dropTarget=0;points=[[0,0.5],[1,0.5]];portConstraint=eastwest;top=0;left=0;right=0;bottom=1;fontFamily=Courier New;fontSize=13;rounded=1;" vertex="1" parent="pHCHq_Ou_SgAkY8i8tZ--40">
          <mxGeometry y="30" width="180" height="30" as="geometry" />
        </mxCell>
        <mxCell id="pHCHq_Ou_SgAkY8i8tZ--42" value="FK" style="shape=partialRectangle;connectable=0;fillColor=none;top=0;left=0;bottom=0;right=0;fontStyle=1;overflow=hidden;whiteSpace=wrap;html=1;fontFamily=Courier New;fontSize=13;rounded=1;" vertex="1" parent="pHCHq_Ou_SgAkY8i8tZ--41">
          <mxGeometry width="30" height="30" as="geometry">
            <mxRectangle width="30" height="30" as="alternateBounds" />
          </mxGeometry>
        </mxCell>
        <mxCell id="pHCHq_Ou_SgAkY8i8tZ--43" value="service_id" style="shape=partialRectangle;connectable=0;fillColor=#fff2cc;top=0;left=0;bottom=0;right=0;align=left;spacingLeft=6;fontStyle=5;overflow=hidden;whiteSpace=wrap;html=1;strokeColor=#d6b656;sketch=1;curveFitting=1;jiggle=2;shadow=1;fontFamily=Courier New;fontSize=13;rounded=1;" vertex="1" parent="pHCHq_Ou_SgAkY8i8tZ--41">
          <mxGeometry x="30" width="150" height="30" as="geometry">
            <mxRectangle width="150" height="30" as="alternateBounds" />
          </mxGeometry>
        </mxCell>
        <mxCell id="pHCHq_Ou_SgAkY8i8tZ--44" value="" style="shape=tableRow;horizontal=0;startSize=0;swimlaneHead=0;swimlaneBody=0;fillColor=none;collapsible=0;dropTarget=0;points=[[0,0.5],[1,0.5]];portConstraint=eastwest;top=0;left=0;right=0;bottom=0;fontFamily=Courier New;fontSize=13;rounded=1;" vertex="1" parent="pHCHq_Ou_SgAkY8i8tZ--40">
          <mxGeometry y="60" width="180" height="30" as="geometry" />
        </mxCell>
        <mxCell id="pHCHq_Ou_SgAkY8i8tZ--45" value="&lt;b style=&quot;font-size: 13px;&quot;&gt;FK&lt;/b&gt;" style="shape=partialRectangle;connectable=0;fillColor=none;top=0;left=0;bottom=0;right=0;editable=1;overflow=hidden;whiteSpace=wrap;html=1;fontFamily=Courier New;fontSize=13;rounded=1;" vertex="1" parent="pHCHq_Ou_SgAkY8i8tZ--44">
          <mxGeometry width="30" height="30" as="geometry">
            <mxRectangle width="30" height="30" as="alternateBounds" />
          </mxGeometry>
        </mxCell>
        <mxCell id="pHCHq_Ou_SgAkY8i8tZ--46" value="&lt;b style=&quot;font-size: 13px;&quot;&gt;&lt;u style=&quot;font-size: 13px;&quot;&gt;record_id&lt;/u&gt;&lt;/b&gt;" style="shape=partialRectangle;connectable=0;fillColor=#d5e8d4;top=0;left=0;bottom=0;right=0;align=left;spacingLeft=6;overflow=hidden;whiteSpace=wrap;html=1;strokeColor=#82b366;sketch=1;curveFitting=1;jiggle=2;shadow=1;fontFamily=Courier New;fontSize=13;rounded=1;" vertex="1" parent="pHCHq_Ou_SgAkY8i8tZ--44">
          <mxGeometry x="30" width="150" height="30" as="geometry">
            <mxRectangle width="150" height="30" as="alternateBounds" />
          </mxGeometry>
        </mxCell>
        <mxCell id="pHCHq_Ou_SgAkY8i8tZ--153" style="edgeStyle=orthogonalEdgeStyle;rounded=1;orthogonalLoop=1;jettySize=auto;html=1;entryX=1;entryY=0.5;entryDx=0;entryDy=0;dashed=1;strokeColor=#ffed47;strokeWidth=5;sketch=1;curveFitting=1;jiggle=2;shadow=1;fontFamily=Courier New;fontSize=13;" edge="1" parent="1" source="pHCHq_Ou_SgAkY8i8tZ--53" target="pHCHq_Ou_SgAkY8i8tZ--41">
          <mxGeometry relative="1" as="geometry" />
        </mxCell>
        <mxCell id="pHCHq_Ou_SgAkY8i8tZ--53" value="Category_Services" style="shape=table;startSize=30;container=1;collapsible=1;childLayout=tableLayout;fixedRows=1;rowLines=0;fontStyle=1;align=center;resizeLast=1;html=1;gradientColor=none;fillColor=#FFEB33;strokeColor=#ffcf30;opacity=90;sketch=1;curveFitting=1;jiggle=2;shadow=1;rounded=1;fontFamily=Courier New;fontSize=13;" vertex="1" parent="1">
          <mxGeometry x="335" y="670" width="180" height="90" as="geometry" />
        </mxCell>
        <mxCell id="pHCHq_Ou_SgAkY8i8tZ--54" value="" style="shape=tableRow;horizontal=0;startSize=0;swimlaneHead=0;swimlaneBody=0;fillColor=none;collapsible=0;dropTarget=0;points=[[0,0.5],[1,0.5]];portConstraint=eastwest;top=0;left=0;right=0;bottom=1;fontFamily=Courier New;fontSize=13;rounded=1;" vertex="1" parent="pHCHq_Ou_SgAkY8i8tZ--53">
          <mxGeometry y="30" width="180" height="30" as="geometry" />
        </mxCell>
        <mxCell id="pHCHq_Ou_SgAkY8i8tZ--55" value="FK" style="shape=partialRectangle;connectable=0;fillColor=none;top=0;left=0;bottom=0;right=0;fontStyle=1;overflow=hidden;whiteSpace=wrap;html=1;fontFamily=Courier New;fontSize=13;rounded=1;" vertex="1" parent="pHCHq_Ou_SgAkY8i8tZ--54">
          <mxGeometry width="30" height="30" as="geometry">
            <mxRectangle width="30" height="30" as="alternateBounds" />
          </mxGeometry>
        </mxCell>
        <mxCell id="pHCHq_Ou_SgAkY8i8tZ--56" value="service_id" style="shape=partialRectangle;connectable=0;fillColor=#fff2cc;top=0;left=0;bottom=0;right=0;align=left;spacingLeft=6;fontStyle=5;overflow=hidden;whiteSpace=wrap;html=1;strokeColor=#d6b656;sketch=1;curveFitting=1;jiggle=2;shadow=1;fontFamily=Courier New;fontSize=13;rounded=1;" vertex="1" parent="pHCHq_Ou_SgAkY8i8tZ--54">
          <mxGeometry x="30" width="150" height="30" as="geometry">
            <mxRectangle width="150" height="30" as="alternateBounds" />
          </mxGeometry>
        </mxCell>
        <mxCell id="pHCHq_Ou_SgAkY8i8tZ--57" value="" style="shape=tableRow;horizontal=0;startSize=0;swimlaneHead=0;swimlaneBody=0;fillColor=none;collapsible=0;dropTarget=0;points=[[0,0.5],[1,0.5]];portConstraint=eastwest;top=0;left=0;right=0;bottom=0;fontFamily=Courier New;fontSize=13;rounded=1;" vertex="1" parent="pHCHq_Ou_SgAkY8i8tZ--53">
          <mxGeometry y="60" width="180" height="30" as="geometry" />
        </mxCell>
        <mxCell id="pHCHq_Ou_SgAkY8i8tZ--58" value="&lt;b style=&quot;font-size: 13px;&quot;&gt;FK&lt;/b&gt;" style="shape=partialRectangle;connectable=0;fillColor=none;top=0;left=0;bottom=0;right=0;editable=1;overflow=hidden;whiteSpace=wrap;html=1;fontFamily=Courier New;fontSize=13;rounded=1;" vertex="1" parent="pHCHq_Ou_SgAkY8i8tZ--57">
          <mxGeometry width="30" height="30" as="geometry">
            <mxRectangle width="30" height="30" as="alternateBounds" />
          </mxGeometry>
        </mxCell>
        <mxCell id="pHCHq_Ou_SgAkY8i8tZ--59" value="&lt;u style=&quot;font-size: 13px;&quot;&gt;&lt;b style=&quot;font-size: 13px;&quot;&gt;category_id&lt;/b&gt;&lt;/u&gt;" style="shape=partialRectangle;connectable=0;fillColor=#f8cecc;top=0;left=0;bottom=0;right=0;align=left;spacingLeft=6;overflow=hidden;whiteSpace=wrap;html=1;strokeColor=#b85450;sketch=1;curveFitting=1;jiggle=2;shadow=1;fontFamily=Courier New;fontSize=13;rounded=1;" vertex="1" parent="pHCHq_Ou_SgAkY8i8tZ--57">
          <mxGeometry x="30" width="150" height="30" as="geometry">
            <mxRectangle width="150" height="30" as="alternateBounds" />
          </mxGeometry>
        </mxCell>
        <mxCell id="pHCHq_Ou_SgAkY8i8tZ--66" value="Services_" style="shape=table;startSize=30;container=1;collapsible=1;childLayout=tableLayout;fixedRows=1;rowLines=0;fontStyle=1;align=center;resizeLast=1;html=1;fillColor=#fff2cc;strokeColor=#d6b656;sketch=1;curveFitting=1;jiggle=2;shadow=1;rounded=1;fontSize=13;" vertex="1" parent="1">
          <mxGeometry x="30" y="910" width="180" height="90" as="geometry" />
        </mxCell>
        <mxCell id="pHCHq_Ou_SgAkY8i8tZ--67" value="" style="shape=tableRow;horizontal=0;startSize=0;swimlaneHead=0;swimlaneBody=0;fillColor=none;collapsible=0;dropTarget=0;points=[[0,0.5],[1,0.5]];portConstraint=eastwest;top=0;left=0;right=0;bottom=1;fontSize=13;rounded=1;" vertex="1" parent="pHCHq_Ou_SgAkY8i8tZ--66">
          <mxGeometry y="30" width="180" height="30" as="geometry" />
        </mxCell>
        <mxCell id="pHCHq_Ou_SgAkY8i8tZ--68" value="PK" style="shape=partialRectangle;connectable=0;fillColor=none;top=0;left=0;bottom=0;right=0;fontStyle=1;overflow=hidden;whiteSpace=wrap;html=1;fontSize=13;rounded=1;" vertex="1" parent="pHCHq_Ou_SgAkY8i8tZ--67">
          <mxGeometry width="30" height="30" as="geometry">
            <mxRectangle width="30" height="30" as="alternateBounds" />
          </mxGeometry>
        </mxCell>
        <mxCell id="pHCHq_Ou_SgAkY8i8tZ--69" value="service_id" style="shape=partialRectangle;connectable=0;fillColor=#fff2cc;top=0;left=0;bottom=0;right=0;align=left;spacingLeft=6;fontStyle=5;overflow=hidden;whiteSpace=wrap;html=1;strokeColor=#d6b656;sketch=1;curveFitting=1;jiggle=2;shadow=1;fontSize=13;rounded=1;" vertex="1" parent="pHCHq_Ou_SgAkY8i8tZ--67">
          <mxGeometry x="30" width="150" height="30" as="geometry">
            <mxRectangle width="150" height="30" as="alternateBounds" />
          </mxGeometry>
        </mxCell>
        <mxCell id="pHCHq_Ou_SgAkY8i8tZ--70" value="" style="shape=tableRow;horizontal=0;startSize=0;swimlaneHead=0;swimlaneBody=0;fillColor=none;collapsible=0;dropTarget=0;points=[[0,0.5],[1,0.5]];portConstraint=eastwest;top=0;left=0;right=0;bottom=0;fontSize=13;rounded=1;" vertex="1" parent="pHCHq_Ou_SgAkY8i8tZ--66">
          <mxGeometry y="60" width="180" height="30" as="geometry" />
        </mxCell>
        <mxCell id="pHCHq_Ou_SgAkY8i8tZ--71" value="" style="shape=partialRectangle;connectable=0;fillColor=none;top=0;left=0;bottom=0;right=0;editable=1;overflow=hidden;whiteSpace=wrap;html=1;fontSize=13;rounded=1;" vertex="1" parent="pHCHq_Ou_SgAkY8i8tZ--70">
          <mxGeometry width="30" height="30" as="geometry">
            <mxRectangle width="30" height="30" as="alternateBounds" />
          </mxGeometry>
        </mxCell>
        <mxCell id="pHCHq_Ou_SgAkY8i8tZ--72" value="service" style="shape=partialRectangle;connectable=0;fillColor=none;top=0;left=0;bottom=0;right=0;align=left;spacingLeft=6;overflow=hidden;whiteSpace=wrap;html=1;fontSize=13;rounded=1;" vertex="1" parent="pHCHq_Ou_SgAkY8i8tZ--70">
          <mxGeometry x="30" width="150" height="30" as="geometry">
            <mxRectangle width="150" height="30" as="alternateBounds" />
          </mxGeometry>
        </mxCell>
        <mxCell id="pHCHq_Ou_SgAkY8i8tZ--79" value="Category" style="shape=table;startSize=30;container=1;collapsible=1;childLayout=tableLayout;fixedRows=1;rowLines=0;fontStyle=1;align=center;resizeLast=1;html=1;fillColor=#fad9d5;strokeColor=#ae4132;sketch=1;curveFitting=1;jiggle=2;shadow=1;rounded=1;fontFamily=Courier New;fontSize=13;" vertex="1" parent="1">
          <mxGeometry x="600" y="910" width="180" height="90" as="geometry" />
        </mxCell>
        <mxCell id="pHCHq_Ou_SgAkY8i8tZ--80" value="" style="shape=tableRow;horizontal=0;startSize=0;swimlaneHead=0;swimlaneBody=0;fillColor=none;collapsible=0;dropTarget=0;points=[[0,0.5],[1,0.5]];portConstraint=eastwest;top=0;left=0;right=0;bottom=1;fontFamily=Courier New;fontSize=13;rounded=1;" vertex="1" parent="pHCHq_Ou_SgAkY8i8tZ--79">
          <mxGeometry y="30" width="180" height="30" as="geometry" />
        </mxCell>
        <mxCell id="pHCHq_Ou_SgAkY8i8tZ--81" value="PK" style="shape=partialRectangle;connectable=0;fillColor=none;top=0;left=0;bottom=0;right=0;fontStyle=1;overflow=hidden;whiteSpace=wrap;html=1;fontFamily=Courier New;fontSize=13;rounded=1;" vertex="1" parent="pHCHq_Ou_SgAkY8i8tZ--80">
          <mxGeometry width="30" height="30" as="geometry">
            <mxRectangle width="30" height="30" as="alternateBounds" />
          </mxGeometry>
        </mxCell>
        <mxCell id="pHCHq_Ou_SgAkY8i8tZ--82" value="category_id" style="shape=partialRectangle;connectable=0;fillColor=#f8cecc;top=0;left=0;bottom=0;right=0;align=left;spacingLeft=6;fontStyle=5;overflow=hidden;whiteSpace=wrap;html=1;strokeColor=#b85450;sketch=1;curveFitting=1;jiggle=2;shadow=1;fontFamily=Courier New;fontSize=13;rounded=1;" vertex="1" parent="pHCHq_Ou_SgAkY8i8tZ--80">
          <mxGeometry x="30" width="150" height="30" as="geometry">
            <mxRectangle width="150" height="30" as="alternateBounds" />
          </mxGeometry>
        </mxCell>
        <mxCell id="pHCHq_Ou_SgAkY8i8tZ--83" value="" style="shape=tableRow;horizontal=0;startSize=0;swimlaneHead=0;swimlaneBody=0;fillColor=none;collapsible=0;dropTarget=0;points=[[0,0.5],[1,0.5]];portConstraint=eastwest;top=0;left=0;right=0;bottom=0;fontFamily=Courier New;fontSize=13;rounded=1;" vertex="1" parent="pHCHq_Ou_SgAkY8i8tZ--79">
          <mxGeometry y="60" width="180" height="30" as="geometry" />
        </mxCell>
        <mxCell id="pHCHq_Ou_SgAkY8i8tZ--84" value="" style="shape=partialRectangle;connectable=0;fillColor=none;top=0;left=0;bottom=0;right=0;editable=1;overflow=hidden;whiteSpace=wrap;html=1;fontFamily=Courier New;fontSize=13;rounded=1;" vertex="1" parent="pHCHq_Ou_SgAkY8i8tZ--83">
          <mxGeometry width="30" height="30" as="geometry">
            <mxRectangle width="30" height="30" as="alternateBounds" />
          </mxGeometry>
        </mxCell>
        <mxCell id="pHCHq_Ou_SgAkY8i8tZ--85" value="category" style="shape=partialRectangle;connectable=0;fillColor=none;top=0;left=0;bottom=0;right=0;align=left;spacingLeft=6;overflow=hidden;whiteSpace=wrap;html=1;fontFamily=Courier New;fontSize=13;rounded=1;" vertex="1" parent="pHCHq_Ou_SgAkY8i8tZ--83">
          <mxGeometry x="30" width="150" height="30" as="geometry">
            <mxRectangle width="150" height="30" as="alternateBounds" />
          </mxGeometry>
        </mxCell>
        <mxCell id="pHCHq_Ou_SgAkY8i8tZ--130" style="edgeStyle=orthogonalEdgeStyle;rounded=1;orthogonalLoop=1;jettySize=auto;html=1;entryX=1;entryY=0.5;entryDx=0;entryDy=0;fillColor=#ffe6cc;strokeColor=#d79b00;sketch=1;curveFitting=1;jiggle=2;shadow=1;fontFamily=Courier New;fontSize=13;" edge="1" parent="1" source="pHCHq_Ou_SgAkY8i8tZ--54" target="pHCHq_Ou_SgAkY8i8tZ--67">
          <mxGeometry relative="1" as="geometry">
            <Array as="points">
              <mxPoint x="273" y="715" />
              <mxPoint x="273" y="955" />
            </Array>
          </mxGeometry>
        </mxCell>
        <mxCell id="pHCHq_Ou_SgAkY8i8tZ--132" style="edgeStyle=orthogonalEdgeStyle;rounded=1;orthogonalLoop=1;jettySize=auto;html=1;entryX=0;entryY=0.5;entryDx=0;entryDy=0;fillColor=#f8cecc;strokeColor=#b85450;sketch=1;curveFitting=1;jiggle=2;shadow=1;fontFamily=Courier New;fontSize=13;" edge="1" parent="1" source="pHCHq_Ou_SgAkY8i8tZ--57" target="pHCHq_Ou_SgAkY8i8tZ--80">
          <mxGeometry relative="1" as="geometry" />
        </mxCell>
        <mxCell id="pHCHq_Ou_SgAkY8i8tZ--137" style="edgeStyle=orthogonalEdgeStyle;rounded=1;orthogonalLoop=1;jettySize=auto;html=1;entryX=1.004;entryY=0.18;entryDx=0;entryDy=0;entryPerimeter=0;fillColor=#d5e8d4;strokeColor=#82b366;sketch=1;curveFitting=1;jiggle=2;shadow=1;fontFamily=Courier New;fontSize=13;" edge="1" parent="1" source="pHCHq_Ou_SgAkY8i8tZ--15" target="pHCHq_Ou_SgAkY8i8tZ--2">
          <mxGeometry relative="1" as="geometry" />
        </mxCell>
        <mxCell id="pHCHq_Ou_SgAkY8i8tZ--141" style="edgeStyle=orthogonalEdgeStyle;rounded=1;orthogonalLoop=1;jettySize=auto;html=1;entryX=0.458;entryY=0.007;entryDx=0;entryDy=0;entryPerimeter=0;fillColor=#ffe6cc;strokeColor=#d79b00;sketch=1;curveFitting=1;jiggle=2;shadow=1;fontSize=13;" edge="1" parent="1" source="pHCHq_Ou_SgAkY8i8tZ--41" target="pHCHq_Ou_SgAkY8i8tZ--66">
          <mxGeometry relative="1" as="geometry" />
        </mxCell>
        <mxCell id="pHCHq_Ou_SgAkY8i8tZ--144" style="edgeStyle=orthogonalEdgeStyle;rounded=1;orthogonalLoop=1;jettySize=auto;html=1;exitX=1;exitY=0.5;exitDx=0;exitDy=0;entryX=0;entryY=0.5;entryDx=0;entryDy=0;fillColor=#d5e8d4;strokeColor=#82b366;sketch=1;curveFitting=1;jiggle=2;shadow=1;fontFamily=Courier New;fontSize=13;" edge="1" parent="1" source="pHCHq_Ou_SgAkY8i8tZ--28" target="pHCHq_Ou_SgAkY8i8tZ--2">
          <mxGeometry relative="1" as="geometry" />
        </mxCell>
        <mxCell id="pHCHq_Ou_SgAkY8i8tZ--145" style="edgeStyle=orthogonalEdgeStyle;rounded=1;orthogonalLoop=1;jettySize=auto;html=1;entryX=0;entryY=0.5;entryDx=0;entryDy=0;fillColor=#d5e8d4;strokeColor=#82b366;sketch=1;curveFitting=1;jiggle=2;shadow=1;fontFamily=Courier New;fontSize=13;" edge="1" parent="1" source="pHCHq_Ou_SgAkY8i8tZ--44" target="pHCHq_Ou_SgAkY8i8tZ--2">
          <mxGeometry relative="1" as="geometry" />
        </mxCell>
        <UserObject label="&lt;span&gt;&lt;u&gt;&lt;font style=&quot;font-size: 31px;&quot;&gt;&lt;b&gt;Airbnb&lt;/b&gt;&lt;/font&gt;&lt;/u&gt;&lt;/span&gt;" treeRoot="1" id="pHCHq_Ou_SgAkY8i8tZ--146">
          <mxCell style="whiteSpace=wrap;html=1;align=center;treeFolding=1;treeMoving=1;newEdgeStyle={&quot;edgeStyle&quot;:&quot;elbowEdgeStyle&quot;,&quot;startArrow&quot;:&quot;none&quot;,&quot;endArrow&quot;:&quot;none&quot;};rounded=1;glass=1;sketch=1;curveFitting=1;jiggle=2;shadow=1;fontFamily=Courier New;fontStyle=0;fillColor=#d80073;strokeColor=#A50040;fontColor=#000000;" vertex="1" parent="1">
            <mxGeometry x="320" y="60" width="120" height="60" as="geometry" />
          </mxCell>
        </UserObject>
        <mxCell id="pHCHq_Ou_SgAkY8i8tZ--148" style="edgeStyle=orthogonalEdgeStyle;rounded=1;orthogonalLoop=1;jettySize=auto;html=1;exitX=0;exitY=0.5;exitDx=0;exitDy=0;dashed=1;strokeColor=#d0cee2;strokeWidth=5;sketch=1;curveFitting=1;jiggle=2;shadow=1;fontFamily=Courier New;fontSize=13;" edge="1" parent="1" source="pHCHq_Ou_SgAkY8i8tZ--15" target="pHCHq_Ou_SgAkY8i8tZ--44">
          <mxGeometry relative="1" as="geometry">
            <Array as="points">
              <mxPoint x="630" y="520" />
              <mxPoint x="435" y="520" />
              <mxPoint x="435" y="605" />
            </Array>
          </mxGeometry>
        </mxCell>
        <mxCell id="pHCHq_Ou_SgAkY8i8tZ--151" style="rounded=1;orthogonalLoop=1;jettySize=auto;html=1;entryX=0;entryY=0.5;entryDx=0;entryDy=0;dashed=1;strokeWidth=5;strokeColor=#b0e3e6;edgeStyle=orthogonalEdgeStyle;jumpStyle=none;sketch=1;curveFitting=1;jiggle=2;shadow=1;flowAnimation=0;fontSize=13;" edge="1" parent="1" source="pHCHq_Ou_SgAkY8i8tZ--28" target="pHCHq_Ou_SgAkY8i8tZ--44">
          <mxGeometry relative="1" as="geometry">
            <mxPoint x="70" y="590" as="targetPoint" />
          </mxGeometry>
        </mxCell>
        <mxCell id="pHCHq_Ou_SgAkY8i8tZ--152" style="edgeStyle=orthogonalEdgeStyle;rounded=1;orthogonalLoop=1;jettySize=auto;html=1;entryX=0.5;entryY=1;entryDx=0;entryDy=0;dashed=1;strokeWidth=5;strokeColor=#d0cee2;sketch=1;curveFitting=1;jiggle=2;shadow=1;fontFamily=Courier New;fontSize=13;" edge="1" parent="1" source="pHCHq_Ou_SgAkY8i8tZ--15" target="pHCHq_Ou_SgAkY8i8tZ--27">
          <mxGeometry relative="1" as="geometry">
            <Array as="points">
              <mxPoint x="170" y="520" />
              <mxPoint x="170" y="380" />
            </Array>
          </mxGeometry>
        </mxCell>
      </root>
    </mxGraphModel>
  </diagram>
</mxfile>
